------------Log start------------
Input #0, matroska,webm, from 'data/65b1ed7f2807aeeaa7f46233/1706160254540/record_out/8af5db29-b1a5-42dc-b320-a72e909ff69a-audio.webm':
  Metadata:
    encoder         : ebml-go.webm.BlockWriter
    creation_time   : 2024-01-25T05:11:28.600000Z
  Duration: N/A, start: 0.000000, bitrate: N/A
  Stream #0:0(eng): Subtitle: webvtt (default) (metadata)
    Metadata:
      title           : VttAudioDroppedPacketMeta
  Stream #0:1(eng): Audio: opus, 48000 Hz, stereo, fltp (default)
    Metadata:
      title           : Audio
Input #1, png_pipe, from 'data/black-bg.png':
  Duration: N/A, bitrate: N/A
  Stream #1:0: Video: png, rgb24(pc), 1280x720 [SAR 3779:3779 DAR 16:9], 25 fps, 25 tbr, 25 tbn, 25 tbc
Input #2, png_pipe, from 'data/black-bg.png':
  Duration: N/A, bitrate: N/A
  Stream #2:0: Video: png, rgb24(pc), 1280x720 [SAR 3779:3779 DAR 16:9], 25 fps, 25 tbr, 25 tbn, 25 tbc
Input #3, lavfi, from 'anullsrc':
  Duration: N/A, start: 0.000000, bitrate: 705 kb/s
  Stream #3:0: Audio: pcm_u8, 44100 Hz, stereo, u8, 705 kb/s
Stream mapping:
  Stream #0:1 (opus) -> concat:in0:a0
  Stream #1:0 (png) -> scale
  Stream #2:0 (png) -> scale
  Stream #3:0 (pcm_u8) -> concat:in1:a0
  concat -> Stream #0:0 (libx264)
  concat -> Stream #0:1 (aac)
Press [q] to stop, [?] for help
[libx264 @ 0x55f158715000] using SAR=1/1
[libx264 @ 0x55f158715000] using cpu capabilities: MMX2 SSE2Fast SSSE3 SSE4.2 AVX FMA3 BMI2 AVX2 AVX512
[libx264 @ 0x55f158715000] profile High 4:4:4 Predictive, level 1.3, 4:4:4, 8-bit
[libx264 @ 0x55f158715000] 264 - core 164 r3095 baee400 - H.264/MPEG-4 AVC codec - Copyleft 2003-2022 - http://www.videolan.org/x264.html - options: cabac=0 ref=1 deblock=0:0:0 analyse=0:0 me=dia subme=0 psy=1 psy_rd=1.00:0.00 mixed_ref=0 me_range=16 chroma_me=1 trellis=0 8x8dct=0 cqm=0 deadzone=21,11 fast_pskip=1 chroma_qp_offset=6 threads=6 lookahead_threads=1 sliced_threads=0 nr=0 decimate=1 interlaced=0 bluray_compat=0 constrained_intra=0 bframes=0 weightp=0 keyint=250 keyint_min=25 scenecut=0 intra_refresh=0 rc=crf mbtree=0 crf=23.0 qcomp=0.60 qpmin=0 qpmax=69 qpstep=4 ip_ratio=1.40 aq=0
Output #0, mp4, to 'data/65b1ed7f2807aeeaa7f46233/1706160254540/record_out/e52e8f72-6de9-45e1-9db8-c8a1fc4f4a73.mp4':
  Metadata:
    encoder         : Lavf58.76.100
  Stream #0:0: Video: h264 (avc1 / 0x31637661), yuv444p(tv, progressive), 320x180 [SAR 1:1 DAR 16:9], q=2-31, 30 fps, 15360 tbn (default)
    Metadata:
      encoder         : Lavc58.134.100 libx264
    Side data:
      cpb: bitrate max/min/avg: 0/0/0 buffer size: 0 vbv_delay: N/A
  Stream #0:1: Audio: aac (LC) (mp4a / 0x6134706D), 48000 Hz, stereo, fltp, 128 kb/s (default)
    Metadata:
      encoder         : Lavc58.134.100 aac
frame=    1 fps=0.0 q=0.0 size=       0kB time=00:00:00.00 bitrate=N/A speed=   0x    frame=  113 fps=0.0 q=12.0 size=       0kB time=00:00:03.50 bitrate=   0.1kbits/s dup=19 drop=0 speed=6.21x    frame=  268 fps=252 q=12.0 size=       0kB time=00:00:08.66 bitrate=   0.0kbits/s dup=45 drop=0 speed=8.14x    frame=  431 fps=275 q=12.0 size=       0kB time=00:00:14.10 bitrate=   0.0kbits/s dup=72 drop=0 speed=9.01x    frame=  614 fps=297 q=12.0 size=       0kB time=00:00:20.38 bitrate=   0.0kbits/s dup=102 drop=0 speed=9.86x    frame=  767 fps=299 q=12.0 size=     256kB time=00:00:25.43 bitrate=  82.5kbits/s dup=128 drop=0 speed=9.91x    frame=  899 fps=293 q=12.0 size=     256kB time=00:00:29.87 bitrate=  70.2kbits/s dup=150 drop=0 speed=9.73x    frame= 1055 fps=296 q=12.0 size=     256kB time=00:00:34.94 bitrate=  60.0kbits/s dup=176 drop=0 speed=9.79x    frame= 1246 fps=306 q=12.0 size=     256kB time=00:00:41.26 bitrate=  50.8kbits/s dup=208 drop=0 speed=10.1x    frame= 1452 fps=318 q=12.0 size=     256kB time=00:00:48.17 bitrate=  43.5kbits/s dup=242 drop=0 speed=10.5x    frame= 1627 fps=321 q=12.0 size=     256kB time=00:00:54.14 bitrate=  38.7kbits/s dup=271 drop=0 speed=10.7x    frame= 1806 fps=324 q=12.0 size=     512kB time=00:00:59.95 bitrate=  70.0kbits/s dup=301 drop=0 speed=10.8x    frame= 1987 fps=327 q=12.0 size=     512kB time=00:01:06.08 bitrate=  63.5kbits/s dup=331 drop=0 speed=10.9x    frame= 2168 fps=330 q=12.0 size=     512kB time=00:01:12.18 bitrate=  58.1kbits/s dup=361 drop=0 speed=  11x    frame= 2362 fps=334 q=12.0 size=     512kB time=00:01:18.46 bitrate=  53.5kbits/s dup=394 drop=0 speed=11.1x    frame= 2546 fps=336 q=12.0 size=     512kB time=00:01:24.60 bitrate=  49.6kbits/s dup=424 drop=0 speed=11.2x    frame= 2710 fps=335 q=12.0 size=     768kB time=00:01:30.06 bitrate=  69.9kbits/s dup=452 drop=0 speed=11.1x    frame= 2899 fps=338 q=12.0 size=     768kB time=00:01:36.36 bitrate=  65.3kbits/s dup=483 drop=0 speed=11.2x    frame= 3077 fps=339 q=12.0 size=     768kB time=00:01:42.46 bitrate=  61.4kbits/s dup=513 drop=0 speed=11.3x    frame= 3262 fps=340 q=12.0 size=     768kB time=00:01:48.62 bitrate=  57.9kbits/s dup=544 drop=0 speed=11.3x    frame= 3442 fps=341 q=12.0 size=     768kB time=00:01:54.62 bitrate=  54.9kbits/s dup=574 drop=0 speed=11.4x    frame= 3616 fps=341 q=12.0 size=     768kB time=00:02:00.40 bitrate=  52.3kbits/s dup=603 drop=0 speed=11.4x    frame= 3810 fps=343 q=12.0 size=    1024kB time=00:02:06.74 bitrate=  66.2kbits/s dup=635 drop=0 speed=11.4x    frame= 3970 fps=342 q=12.0 size=    1024kB time=00:02:12.20 bitrate=  63.5kbits/s dup=662 drop=0 speed=11.4x    frame= 4142 fps=342 q=12.0 size=    1024kB time=00:02:17.99 bitrate=  60.8kbits/s dup=690 drop=0 speed=11.4x    frame= 4324 fps=343 q=12.0 size=    1024kB time=00:02:24.01 bitrate=  58.2kbits/s dup=721 drop=0 speed=11.4x    frame= 4523 fps=345 q=12.0 size=    1280kB time=00:02:30.65 bitrate=  69.6kbits/s dup=754 drop=0 speed=11.5x    frame= 4708 fps=346 q=12.0 size=    1280kB time=00:02:36.81 bitrate=  66.9kbits/s dup=785 drop=0 speed=11.5x    frame= 4897 fps=347 q=12.0 size=    1280kB time=00:02:42.96 bitrate=  64.3kbits/s dup=816 drop=0 speed=11.6x    frame= 5072 fps=347 q=12.0 size=    1280kB time=00:02:48.98 bitrate=  62.1kbits/s dup=845 drop=0 speed=11.6x    frame= 5263 fps=349 q=12.0 size=    1280kB time=00:02:55.27 bitrate=  59.8kbits/s dup=877 drop=0 speed=11.6x    frame= 5458 fps=350 q=12.0 size=    1536kB time=00:03:01.66 bitrate=  69.3kbits/s dup=910 drop=0 speed=11.6x    frame= 5640 fps=350 q=12.0 size=    1536kB time=00:03:07.91 bitrate=  67.0kbits/s dup=940 drop=0 speed=11.7x    frame= 5821 fps=351 q=12.0 size=    1536kB time=00:03:13.94 bitrate=  64.9kbits/s dup=970 drop=0 speed=11.7x    More than 1000 frames duplicated
frame= 6019 fps=352 q=12.0 size=    1536kB time=00:03:20.54 bitrate=  62.7kbits/s dup=1003 drop=0 speed=11.7x    frame= 6205 fps=353 q=12.0 size=    1792kB time=00:03:26.72 bitrate=  71.0kbits/s dup=1034 drop=0 speed=11.7x    frame= 6394 fps=353 q=12.0 size=    1792kB time=00:03:33.03 bitrate=  68.9kbits/s dup=1066 drop=0 speed=11.8x    frame= 6578 fps=354 q=12.0 size=    1792kB time=00:03:39.00 bitrate=  67.0kbits/s dup=1096 drop=0 speed=11.8x    frame= 6778 fps=355 q=12.0 size=    1792kB time=00:03:45.71 bitrate=  65.0kbits/s dup=1130 drop=0 speed=11.8x    frame= 6958 fps=355 q=12.0 size=    2048kB time=00:03:51.82 bitrate=  72.4kbits/s dup=1160 drop=0 speed=11.8x    frame= 7141 fps=355 q=12.0 size=    2048kB time=00:03:57.94 bitrate=  70.5kbits/s dup=1190 drop=0 speed=11.8x    frame= 7327 fps=355 q=12.0 size=    2048kB time=00:04:04.16 bitrate=  68.7kbits/s dup=1221 drop=0 speed=11.8x    frame= 7506 fps=356 q=13.0 size=    2048kB time=00:04:10.09 bitrate=  67.1kbits/s dup=1251 drop=0 speed=11.8x    frame= 7694 fps=356 q=12.0 size=    2304kB time=00:04:16.37 bitrate=  73.6kbits/s dup=1282 drop=0 speed=11.9x    frame= 7880 fps=356 q=12.0 size=    2304kB time=00:04:22.58 bitrate=  71.9kbits/s dup=1313 drop=0 speed=11.9x    frame= 8062 fps=356 q=12.0 size=    2304kB time=00:04:28.49 bitrate=  70.3kbits/s dup=1344 drop=0 speed=11.9x    frame= 8261 fps=357 q=12.0 size=    2304kB time=00:04:35.25 bitrate=  68.6kbits/s dup=1377 drop=0 speed=11.9x    frame= 8459 fps=358 q=12.0 size=    2304kB time=00:04:41.85 bitrate=  67.0kbits/s dup=1410 drop=0 speed=11.9x    frame= 8644 fps=358 q=12.0 size=    2560kB time=00:04:48.02 bitrate=  72.8kbits/s dup=1441 drop=0 speed=11.9x    frame= 8827 fps=359 q=12.0 size=    2560kB time=00:04:54.14 bitrate=  71.3kbits/s dup=1471 drop=0 speed=11.9x    frame= 9014 fps=359 q=12.0 size=    2560kB time=00:05:00.39 bitrate=  69.8kbits/s dup=1502 drop=0 speed=  12x    frame= 9194 fps=359 q=12.0 size=    2816kB time=00:05:06.39 bitrate=  75.3kbits/s dup=1532 drop=0 speed=  12x    frame= 9389 fps=359 q=12.0 size=    2816kB time=00:05:12.86 bitrate=  73.7kbits/s dup=1565 drop=0 speed=  12x    frame= 9576 fps=360 q=12.0 size=    2816kB time=00:05:19.10 bitrate=  72.3kbits/s dup=1596 drop=0 speed=  12x    frame= 9760 fps=360 q=12.0 size=    3072kB time=00:05:25.21 bitrate=  77.4kbits/s dup=1627 drop=0 speed=  12x    frame= 9967 fps=361 q=12.0 size=    3072kB time=00:05:31.96 bitrate=  75.8kbits/s dup=1661 drop=0 speed=  12x    frame=10172 fps=362 q=12.0 size=    3072kB time=00:05:38.80 bitrate=  74.3kbits/s dup=1695 drop=0 speed=  12x    frame=10369 fps=362 q=12.0 size=    3072kB time=00:05:45.44 bitrate=  72.9kbits/s dup=1728 drop=0 speed=12.1x    frame=10554 fps=362 q=12.0 size=    3072kB time=00:05:51.69 bitrate=  71.6kbits/s dup=1759 drop=0 speed=12.1x    frame=10729 fps=362 q=12.0 size=    3328kB time=00:05:57.55 bitrate=  76.2kbits/s dup=1788 drop=0 speed=12.1x    frame=10909 fps=362 q=12.0 size=    3328kB time=00:06:03.54 bitrate=  75.0kbits/s dup=1818 drop=0 speed=12.1x    frame=11082 fps=362 q=12.0 size=    3328kB time=00:06:09.30 bitrate=  73.8kbits/s dup=1847 drop=0 speed=12.1x    frame=11262 fps=362 q=12.0 size=    3584kB time=00:06:15.32 bitrate=  78.2kbits/s dup=1877 drop=0 speed=12.1x    frame=11438 fps=362 q=12.0 size=    3584kB time=00:06:21.19 bitrate=  77.0kbits/s dup=1906 drop=0 speed=  12x    frame=11620 fps=362 q=12.0 size=    3584kB time=00:06:27.06 bitrate=  75.9kbits/s dup=1937 drop=0 speed=  12x    frame=11808 fps=362 q=12.0 size=    3584kB time=00:06:33.51 bitrate=  74.6kbits/s dup=1968 drop=0 speed=12.1x    frame=11984 fps=362 q=12.0 size=    3840kB time=00:06:39.38 bitrate=  78.8kbits/s dup=1997 drop=0 speed=12.1x    frame=12160 fps=362 q=12.0 size=    3840kB time=00:06:45.22 bitrate=  77.6kbits/s dup=2027 drop=0 speed=  12x    frame=12334 fps=361 q=12.0 size=    4096kB time=00:06:51.02 bitrate=  81.6kbits/s dup=2056 drop=0 speed=  12x    frame=12516 fps=361 q=12.0 size=    4096kB time=00:06:57.10 bitrate=  80.4kbits/s dup=2086 drop=0 speed=  12x    frame=12698 fps=361 q=12.0 size=    4096kB time=00:07:03.00 bitrate=  79.3kbits/s dup=2116 drop=0 speed=  12x    frame=12878 fps=361 q=12.0 size=    4096kB time=00:07:09.19 bitrate=  78.2kbits/s dup=2146 drop=0 speed=  12x    frame=13062 fps=361 q=12.0 size=    4352kB time=00:07:15.29 bitrate=  81.9kbits/s dup=2177 drop=0 speed=  12x    frame=13241 fps=361 q=12.0 size=    4352kB time=00:07:21.29 bitrate=  80.8kbits/s dup=2207 drop=0 speed=  12x    frame=13420 fps=361 q=12.0 size=    4608kB time=00:07:27.22 bitrate=  84.4kbits/s dup=2237 drop=0 speed=  12x    frame=13601 fps=361 q=12.0 size=    4608kB time=00:07:33.26 bitrate=  83.3kbits/s dup=2267 drop=0 speed=  12x    frame=13782 fps=361 q=12.0 size=    4608kB time=00:07:39.28 bitrate=  82.2kbits/s dup=2297 drop=0 speed=  12x    frame=13963 fps=361 q=12.0 size=    4864kB time=00:07:45.31 bitrate=  85.6kbits/s dup=2327 drop=0 speed=  12x    [mp4 @ 0x55f1587104c0] Starting second pass: moving the moov atom to the beginning of the file
frame=14040 fps=361 q=-1.0 Lsize=    5233kB time=00:07:47.96 bitrate=  91.6kbits/s dup=2340 drop=0 speed=  12x    
video:335kB audio:4616kB subtitle:0kB other streams:0kB global headers:0kB muxing overhead: 5.686033%
[libx264 @ 0x55f158715000] frame I:57    Avg QP: 9.19  size:  3279
[libx264 @ 0x55f158715000] frame P:13983 Avg QP:12.01  size:    11
[libx264 @ 0x55f158715000] mb I  I16..4: 100.0%  0.0%  0.0%
[libx264 @ 0x55f158715000] mb P  I16..4:  0.0%  0.0%  0.0%  P16..4:  0.0%  0.0%  0.0%  0.0%  0.0%    skip:100.0%
[libx264 @ 0x55f158715000] coded y,u,v intra: 5.3% 0.0% 0.0% inter: 0.0% 0.0% 0.0%
[libx264 @ 0x55f158715000] i16 v,h,dc,p: 92%  5%  3%  0%
[libx264 @ 0x55f158715000] kb/s:5.85
[aac @ 0x55f158706e40] Qavg: 4813.908
Input #0, matroska,webm, from 'data/65b1ed7f2807aeeaa7f46233/1706160254540/record_out/809c226a-7f9f-470d-ace6-27344dfed2fd-audio.webm':
  Metadata:
    encoder         : ebml-go.webm.BlockWriter
    creation_time   : 2024-01-25T05:11:28.778000Z
  Duration: N/A, start: 0.000000, bitrate: N/A
  Stream #0:0(eng): Subtitle: webvtt (default) (metadata)
    Metadata:
      title           : VttAudioDroppedPacketMeta
  Stream #0:1(eng): Audio: opus, 48000 Hz, stereo, fltp (default)
    Metadata:
      title           : Audio
Input #1, png_pipe, from 'data/black-bg.png':
  Duration: N/A, bitrate: N/A
  Stream #1:0: Video: png, rgb24(pc), 1280x720 [SAR 3779:3779 DAR 16:9], 25 fps, 25 tbr, 25 tbn, 25 tbc
Input #2, png_pipe, from 'data/black-bg.png':
  Duration: N/A, bitrate: N/A
  Stream #2:0: Video: png, rgb24(pc), 1280x720 [SAR 3779:3779 DAR 16:9], 25 fps, 25 tbr, 25 tbn, 25 tbc
Input #3, lavfi, from 'anullsrc':
  Duration: N/A, start: 0.000000, bitrate: 705 kb/s
  Stream #3:0: Audio: pcm_u8, 44100 Hz, stereo, u8, 705 kb/s
Stream mapping:
  Stream #0:1 (opus) -> concat:in0:a0
  Stream #1:0 (png) -> scale
  Stream #2:0 (png) -> scale
  Stream #3:0 (pcm_u8) -> concat:in1:a0
  concat -> Stream #0:0 (libx264)
  concat -> Stream #0:1 (aac)
Press [q] to stop, [?] for help
[libx264 @ 0x555cf5e99000] using SAR=1/1
[libx264 @ 0x555cf5e99000] using cpu capabilities: MMX2 SSE2Fast SSSE3 SSE4.2 AVX FMA3 BMI2 AVX2 AVX512
[libx264 @ 0x555cf5e99000] profile High 4:4:4 Predictive, level 1.3, 4:4:4, 8-bit
[libx264 @ 0x555cf5e99000] 264 - core 164 r3095 baee400 - H.264/MPEG-4 AVC codec - Copyleft 2003-2022 - http://www.videolan.org/x264.html - options: cabac=0 ref=1 deblock=0:0:0 analyse=0:0 me=dia subme=0 psy=1 psy_rd=1.00:0.00 mixed_ref=0 me_range=16 chroma_me=1 trellis=0 8x8dct=0 cqm=0 deadzone=21,11 fast_pskip=1 chroma_qp_offset=6 threads=6 lookahead_threads=1 sliced_threads=0 nr=0 decimate=1 interlaced=0 bluray_compat=0 constrained_intra=0 bframes=0 weightp=0 keyint=250 keyint_min=25 scenecut=0 intra_refresh=0 rc=crf mbtree=0 crf=23.0 qcomp=0.60 qpmin=0 qpmax=69 qpstep=4 ip_ratio=1.40 aq=0
Output #0, mp4, to 'data/65b1ed7f2807aeeaa7f46233/1706160254540/record_out/55858472-bbe0-4aef-bb0f-cc3820358518.mp4':
  Metadata:
    encoder         : Lavf58.76.100
  Stream #0:0: Video: h264 (avc1 / 0x31637661), yuv444p(tv, progressive), 320x180 [SAR 1:1 DAR 16:9], q=2-31, 30 fps, 15360 tbn (default)
    Metadata:
      encoder         : Lavc58.134.100 libx264
    Side data:
      cpb: bitrate max/min/avg: 0/0/0 buffer size: 0 vbv_delay: N/A
  Stream #0:1: Audio: aac (LC) (mp4a / 0x6134706D), 48000 Hz, stereo, fltp, 128 kb/s (default)
    Metadata:
      encoder         : Lavc58.134.100 aac
frame=    1 fps=0.0 q=0.0 size=       0kB time=00:00:00.00 bitrate=N/A speed=   0x    frame=  146 fps=0.0 q=12.0 size=       0kB time=00:00:04.78 bitrate=   0.1kbits/s dup=24 drop=0 speed=8.61x    frame=  314 fps=297 q=12.0 size=       0kB time=00:00:10.39 bitrate=   0.0kbits/s dup=52 drop=0 speed=9.83x    frame=  455 fps=292 q=12.0 size=       0kB time=00:00:15.07 bitrate=   0.0kbits/s dup=76 drop=0 speed=9.68x    frame=  612 fps=297 q=12.0 size=       0kB time=00:00:20.13 bitrate=   0.0kbits/s dup=102 drop=0 speed=9.78x    frame=  802 fps=313 q=12.0 size=       0kB time=00:00:26.62 bitrate=   0.0kbits/s dup=134 drop=0 speed=10.4x    frame= 1006 fps=328 q=13.0 size=       0kB time=00:00:33.26 bitrate=   0.0kbits/s dup=168 drop=0 speed=10.9x    frame= 1200 fps=337 q=12.0 size=       0kB time=00:00:39.82 bitrate=   0.0kbits/s dup=200 drop=0 speed=11.2x    frame= 1384 fps=340 q=12.0 size=     256kB time=00:00:46.02 bitrate=  45.6kbits/s dup=231 drop=0 speed=11.3x    frame= 1576 fps=345 q=12.0 size=     256kB time=00:00:52.26 bitrate=  40.1kbits/s dup=263 drop=0 speed=11.4x    frame= 1741 fps=344 q=12.0 size=     256kB time=00:00:57.92 bitrate=  36.2kbits/s dup=290 drop=0 speed=11.4x    frame= 1931 fps=347 q=12.0 size=     256kB time=00:01:04.26 bitrate=  32.6kbits/s dup=322 drop=0 speed=11.5x    frame= 2089 fps=344 q=12.0 size=     256kB time=00:01:09.54 bitrate=  30.2kbits/s dup=348 drop=0 speed=11.5x    frame= 2267 fps=345 q=12.0 size=     256kB time=00:01:15.43 bitrate=  27.8kbits/s dup=378 drop=0 speed=11.5x    frame= 2446 fps=346 q=12.0 size=     512kB time=00:01:21.42 bitrate=  51.5kbits/s dup=408 drop=0 speed=11.5x    frame= 2623 fps=346 q=12.0 size=     512kB time=00:01:27.16 bitrate=  48.1kbits/s dup=437 drop=0 speed=11.5x    frame= 2795 fps=346 q=12.0 size=     512kB time=00:01:32.90 bitrate=  45.2kbits/s dup=466 drop=0 speed=11.5x    frame= 2957 fps=345 q=12.0 size=     512kB time=00:01:38.30 bitrate=  42.7kbits/s dup=493 drop=0 speed=11.5x    frame= 3157 fps=348 q=12.0 size=     512kB time=00:01:45.05 bitrate=  39.9kbits/s dup=526 drop=0 speed=11.6x    frame= 3356 fps=350 q=12.0 size=     512kB time=00:01:51.60 bitrate=  37.6kbits/s dup=559 drop=0 speed=11.6x    frame= 3497 fps=347 q=12.0 size=     512kB time=00:01:56.30 bitrate=  36.1kbits/s dup=583 drop=0 speed=11.5x    frame= 3707 fps=350 q=12.0 size=     512kB time=00:02:03.30 bitrate=  34.0kbits/s dup=618 drop=0 speed=11.6x    frame= 3854 fps=348 q=12.0 size=     768kB time=00:02:08.39 bitrate=  49.0kbits/s dup=642 drop=0 speed=11.6x    frame= 4013 fps=346 q=12.0 size=     768kB time=00:02:13.50 bitrate=  47.1kbits/s dup=669 drop=0 speed=11.5x    frame= 4187 fps=346 q=12.0 size=     768kB time=00:02:19.30 bitrate=  45.2kbits/s dup=698 drop=0 speed=11.5x    frame= 4366 fps=347 q=12.0 size=     768kB time=00:02:25.43 bitrate=  43.3kbits/s dup=728 drop=0 speed=11.6x    frame= 4546 fps=347 q=12.0 size=     768kB time=00:02:31.42 bitrate=  41.6kbits/s dup=758 drop=0 speed=11.6x    frame= 4703 fps=346 q=12.0 size=     768kB time=00:02:36.50 bitrate=  40.2kbits/s dup=784 drop=0 speed=11.5x    frame= 4868 fps=345 q=12.0 size=    1024kB time=00:02:42.19 bitrate=  51.7kbits/s dup=811 drop=0 speed=11.5x    frame= 5029 fps=345 q=12.0 size=    1024kB time=00:02:47.36 bitrate=  50.1kbits/s dup=838 drop=0 speed=11.5x    frame= 5186 fps=344 q=12.0 size=    1024kB time=00:02:52.78 bitrate=  48.6kbits/s dup=864 drop=0 speed=11.4x    frame= 5342 fps=343 q=12.0 size=    1024kB time=00:02:57.97 bitrate=  47.1kbits/s dup=890 drop=0 speed=11.4x    frame= 5519 fps=343 q=12.0 size=    1024kB time=00:03:03.84 bitrate=  45.6kbits/s dup=920 drop=0 speed=11.4x    frame= 5662 fps=341 q=12.0 size=    1280kB time=00:03:08.65 bitrate=  55.6kbits/s dup=944 drop=0 speed=11.4x    frame= 5810 fps=340 q=12.0 size=    1280kB time=00:03:13.48 bitrate=  54.2kbits/s dup=968 drop=0 speed=11.3x    frame= 5982 fps=340 q=12.0 size=    1280kB time=00:03:19.24 bitrate=  52.6kbits/s dup=997 drop=0 speed=11.3x    More than 1000 frames duplicated
frame= 6152 fps=340 q=12.0 size=    1280kB time=00:03:24.80 bitrate=  51.2kbits/s dup=1025 drop=0 speed=11.3x    frame= 6338 fps=341 q=12.0 size=    1280kB time=00:03:31.00 bitrate=  49.7kbits/s dup=1056 drop=0 speed=11.3x    frame= 6515 fps=341 q=12.0 size=    1280kB time=00:03:36.90 bitrate=  48.3kbits/s dup=1086 drop=0 speed=11.4x    frame= 6665 fps=340 q=12.0 size=    1536kB time=00:03:42.06 bitrate=  56.7kbits/s dup=1111 drop=0 speed=11.3x    frame= 6808 fps=339 q=12.0 size=    1536kB time=00:03:46.83 bitrate=  55.5kbits/s dup=1135 drop=0 speed=11.3x    frame= 6938 fps=337 q=12.0 size=    1536kB time=00:03:51.18 bitrate=  54.4kbits/s dup=1156 drop=0 speed=11.2x    frame= 7073 fps=335 q=12.0 size=    1536kB time=00:03:55.67 bitrate=  53.4kbits/s dup=1179 drop=0 speed=11.2x    frame= 7246 fps=335 q=12.0 size=    1536kB time=00:04:01.44 bitrate=  52.1kbits/s dup=1208 drop=0 speed=11.2x    frame= 7360 fps=333 q=12.0 size=    1536kB time=00:04:05.22 bitrate=  51.3kbits/s dup=1227 drop=0 speed=11.1x    frame= 7496 fps=331 q=12.0 size=    1536kB time=00:04:09.60 bitrate=  50.4kbits/s dup=1249 drop=0 speed=  11x    frame= 7630 fps=330 q=12.0 size=    1536kB time=00:04:14.22 bitrate=  49.5kbits/s dup=1272 drop=0 speed=  11x    frame= 7760 fps=329 q=12.0 size=    1792kB time=00:04:18.57 bitrate=  56.8kbits/s dup=1293 drop=0 speed=10.9x    frame= 7885 fps=327 q=12.0 size=    1792kB time=00:04:22.63 bitrate=  55.9kbits/s dup=1314 drop=0 speed=10.9x    frame= 8014 fps=325 q=12.0 size=    1792kB time=00:04:27.03 bitrate=  55.0kbits/s dup=1336 drop=0 speed=10.8x    frame= 8179 fps=326 q=12.0 size=    1792kB time=00:04:32.57 bitrate=  53.9kbits/s dup=1363 drop=0 speed=10.8x    frame= 8284 fps=323 q=12.0 size=    1792kB time=00:04:36.02 bitrate=  53.2kbits/s dup=1381 drop=0 speed=10.8x    frame= 8390 fps=321 q=12.0 size=    1792kB time=00:04:39.54 bitrate=  52.5kbits/s dup=1398 drop=0 speed=10.7x    frame= 8526 fps=320 q=12.0 size=    1792kB time=00:04:43.93 bitrate=  51.7kbits/s dup=1421 drop=0 speed=10.7x    frame= 8624 fps=318 q=12.0 size=    2048kB time=00:04:47.38 bitrate=  58.4kbits/s dup=1437 drop=0 speed=10.6x    frame= 8738 fps=316 q=12.0 size=    2048kB time=00:04:51.17 bitrate=  57.6kbits/s dup=1456 drop=0 speed=10.5x    frame= 8857 fps=315 q=12.0 size=    2048kB time=00:04:55.00 bitrate=  56.9kbits/s dup=1476 drop=0 speed=10.5x    frame= 8966 fps=313 q=12.0 size=    2048kB time=00:04:58.60 bitrate=  56.2kbits/s dup=1494 drop=0 speed=10.4x    frame= 9077 fps=311 q=12.0 size=    2048kB time=00:05:02.48 bitrate=  55.5kbits/s dup=1513 drop=0 speed=10.4x    frame= 9190 fps=310 q=12.0 size=    2048kB time=00:05:06.23 bitrate=  54.8kbits/s dup=1532 drop=0 speed=10.3x    frame= 9312 fps=309 q=12.0 size=    2304kB time=00:05:10.29 bitrate=  60.8kbits/s dup=1552 drop=0 speed=10.3x    frame= 9410 fps=307 q=12.0 size=    2304kB time=00:05:13.60 bitrate=  60.2kbits/s dup=1568 drop=0 speed=10.2x    frame= 9524 fps=306 q=12.0 size=    2304kB time=00:05:17.38 bitrate=  59.5kbits/s dup=1587 drop=0 speed=10.2x    frame= 9632 fps=304 q=12.0 size=    2304kB time=00:05:20.96 bitrate=  58.8kbits/s dup=1605 drop=0 speed=10.1x    frame= 9740 fps=303 q=12.0 size=    2304kB time=00:05:24.55 bitrate=  58.2kbits/s dup=1623 drop=0 speed=10.1x    frame= 9844 fps=301 q=12.0 size=    2304kB time=00:05:28.05 bitrate=  57.5kbits/s dup=1641 drop=0 speed=  10x    frame= 9982 fps=301 q=12.0 size=    2560kB time=00:05:32.62 bitrate=  63.0kbits/s dup=1664 drop=0 speed=  10x    frame=10127 fps=301 q=12.0 size=    2560kB time=00:05:37.33 bitrate=  62.2kbits/s dup=1688 drop=0 speed=  10x    frame=10279 fps=301 q=12.0 size=    2560kB time=00:05:42.55 bitrate=  61.2kbits/s dup=1713 drop=0 speed=  10x    frame=10428 fps=301 q=12.0 size=    2560kB time=00:05:47.48 bitrate=  60.4kbits/s dup=1738 drop=0 speed=  10x    frame=10632 fps=302 q=12.0 size=    2560kB time=00:05:54.13 bitrate=  59.2kbits/s dup=1772 drop=0 speed=10.1x    frame=10808 fps=303 q=12.0 size=    2560kB time=00:06:00.00 bitrate=  58.3kbits/s dup=1801 drop=0 speed=10.1x    frame=11017 fps=305 q=12.0 size=    2560kB time=00:06:07.14 bitrate=  57.1kbits/s dup=1836 drop=0 speed=10.2x    frame=11204 fps=306 q=12.0 size=    2560kB time=00:06:13.24 bitrate=  56.2kbits/s dup=1867 drop=0 speed=10.2x    frame=11413 fps=307 q=12.0 size=    2560kB time=00:06:20.16 bitrate=  55.2kbits/s dup=1902 drop=0 speed=10.2x    frame=11612 fps=308 q=12.0 size=    2560kB time=00:06:27.01 bitrate=  54.2kbits/s dup=1935 drop=0 speed=10.3x    frame=11806 fps=309 q=12.0 size=    2816kB time=00:06:33.26 bitrate=  58.7kbits/s dup=1968 drop=0 speed=10.3x    frame=11983 fps=310 q=12.0 size=    2816kB time=00:06:39.35 bitrate=  57.8kbits/s dup=1997 drop=0 speed=10.3x    frame=12158 fps=310 q=12.0 size=    2816kB time=00:06:45.00 bitrate=  57.0kbits/s dup=2026 drop=0 speed=10.3x    frame=12353 fps=311 q=12.0 size=    2816kB time=00:06:51.53 bitrate=  56.1kbits/s dup=2059 drop=0 speed=10.4x    frame=12551 fps=312 q=12.0 size=    2816kB time=00:06:58.10 bitrate=  55.2kbits/s dup=2092 drop=0 speed=10.4x    frame=12726 fps=313 q=12.0 size=    2816kB time=00:07:04.09 bitrate=  54.4kbits/s dup=2121 drop=0 speed=10.4x    frame=12928 fps=314 q=12.0 size=    2816kB time=00:07:10.66 bitrate=  53.6kbits/s dup=2155 drop=0 speed=10.5x    frame=13130 fps=315 q=12.0 size=    2816kB time=00:07:17.60 bitrate=  52.7kbits/s dup=2188 drop=0 speed=10.5x    frame=13331 fps=316 q=12.0 size=    2816kB time=00:07:24.10 bitrate=  51.9kbits/s dup=2222 drop=0 speed=10.5x    frame=13542 fps=317 q=12.0 size=    2816kB time=00:07:31.13 bitrate=  51.1kbits/s dup=2257 drop=0 speed=10.6x    frame=13756 fps=319 q=13.0 size=    2816kB time=00:07:38.26 bitrate=  50.3kbits/s dup=2293 drop=0 speed=10.6x    frame=13964 fps=320 q=12.0 size=    2816kB time=00:07:45.38 bitrate=  49.6kbits/s dup=2327 drop=0 speed=10.7x    frame=14124 fps=320 q=12.0 size=    3072kB time=00:07:50.72 bitrate=  53.5kbits/s dup=2354 drop=0 speed=10.7x    frame=14282 fps=320 q=12.0 size=    3072kB time=00:07:55.99 bitrate=  52.9kbits/s dup=2380 drop=0 speed=10.7x    frame=14435 fps=319 q=12.0 size=    3072kB time=00:08:01.07 bitrate=  52.3kbits/s dup=2406 drop=0 speed=10.6x    frame=14580 fps=319 q=12.0 size=    3072kB time=00:08:05.90 bitrate=  51.8kbits/s dup=2430 drop=0 speed=10.6x    frame=14738 fps=319 q=12.0 size=    3328kB time=00:08:11.19 bitrate=  55.5kbits/s dup=2456 drop=0 speed=10.6x    frame=14888 fps=319 q=12.0 size=    3328kB time=00:08:16.20 bitrate=  54.9kbits/s dup=2481 drop=0 speed=10.6x    frame=15048 fps=319 q=12.0 size=    3328kB time=00:08:21.50 bitrate=  54.4kbits/s dup=2508 drop=0 speed=10.6x    frame=15198 fps=319 q=12.0 size=    3584kB time=00:08:26.49 bitrate=  58.0kbits/s dup=2533 drop=0 speed=10.6x    frame=15352 fps=319 q=12.0 size=    3584kB time=00:08:31.64 bitrate=  57.4kbits/s dup=2559 drop=0 speed=10.6x    frame=15496 fps=318 q=12.0 size=    3584kB time=00:08:36.26 bitrate=  56.9kbits/s dup=2583 drop=0 speed=10.6x    frame=15653 fps=318 q=12.0 size=    3840kB time=00:08:41.66 bitrate=  60.3kbits/s dup=2609 drop=0 speed=10.6x    frame=15793 fps=318 q=12.0 size=    3840kB time=00:08:46.34 bitrate=  59.8kbits/s dup=2632 drop=0 speed=10.6x    frame=15941 fps=318 q=12.0 size=    3840kB time=00:08:51.27 bitrate=  59.2kbits/s dup=2657 drop=0 speed=10.6x    frame=16092 fps=317 q=12.0 size=    3840kB time=00:08:56.28 bitrate=  58.7kbits/s dup=2682 drop=0 speed=10.6x    frame=16247 fps=317 q=12.0 size=    4096kB time=00:09:01.47 bitrate=  62.0kbits/s dup=2708 drop=0 speed=10.6x    frame=16397 fps=317 q=12.0 size=    4096kB time=00:09:06.45 bitrate=  61.4kbits/s dup=2733 drop=0 speed=10.6x    frame=16553 fps=317 q=12.0 size=    4096kB time=00:09:11.66 bitrate=  60.8kbits/s dup=2759 drop=0 speed=10.6x    frame=16680 fps=317 q=12.0 size=    4352kB time=00:09:15.73 bitrate=  64.2kbits/s dup=2780 drop=0 speed=10.5x    frame=16836 fps=316 q=12.0 size=    4352kB time=00:09:21.05 bitrate=  63.5kbits/s dup=2806 drop=0 speed=10.5x    frame=16990 fps=316 q=12.0 size=    4352kB time=00:09:26.06 bitrate=  63.0kbits/s dup=2832 drop=0 speed=10.5x    frame=17154 fps=316 q=12.0 size=    4352kB time=00:09:31.53 bitrate=  62.4kbits/s dup=2859 drop=0 speed=10.5x    frame=17288 fps=316 q=12.0 size=    4352kB time=00:09:36.18 bitrate=  61.9kbits/s dup=2881 drop=0 speed=10.5x    frame=17424 fps=316 q=12.0 size=    4352kB time=00:09:40.70 bitrate=  61.4kbits/s dup=2904 drop=0 speed=10.5x    frame=17555 fps=315 q=12.0 size=    4608kB time=00:09:45.07 bitrate=  64.5kbits/s dup=2926 drop=0 speed=10.5x    frame=17680 fps=315 q=12.0 size=    4608kB time=00:09:49.22 bitrate=  64.1kbits/s dup=2947 drop=0 speed=10.5x    frame=17785 fps=314 q=12.0 size=    4608kB time=00:09:52.73 bitrate=  63.7kbits/s dup=2964 drop=0 speed=10.5x    frame=17899 fps=313 q=12.0 size=    4608kB time=00:09:56.54 bitrate=  63.3kbits/s dup=2983 drop=0 speed=10.4x    frame=18016 fps=312 q=12.0 size=    4608kB time=00:10:00.41 bitrate=  62.9kbits/s dup=3003 drop=0 speed=10.4x    frame=18127 fps=311 q=12.0 size=    4608kB time=00:10:04.14 bitrate=  62.5kbits/s dup=3021 drop=0 speed=10.4x    frame=18208 fps=310 q=12.0 size=    4864kB time=00:10:06.82 bitrate=  65.7kbits/s dup=3035 drop=0 speed=10.3x    frame=18314 fps=309 q=12.0 size=    4864kB time=00:10:10.36 bitrate=  65.3kbits/s dup=3052 drop=0 speed=10.3x    frame=18415 fps=308 q=12.0 size=    4864kB time=00:10:13.72 bitrate=  64.9kbits/s dup=3069 drop=0 speed=10.3x    frame=18520 fps=308 q=12.0 size=    4864kB time=00:10:17.22 bitrate=  64.6kbits/s dup=3087 drop=0 speed=10.2x    frame=18626 fps=307 q=12.0 size=    4864kB time=00:10:20.78 bitrate=  64.2kbits/s dup=3104 drop=0 speed=10.2x    frame=18727 fps=306 q=12.0 size=    4864kB time=00:10:24.15 bitrate=  63.8kbits/s dup=3121 drop=0 speed=10.2x    frame=18817 fps=305 q=12.0 size=    4864kB time=00:10:27.14 bitrate=  63.5kbits/s dup=3136 drop=0 speed=10.2x    frame=18919 fps=304 q=12.0 size=    5120kB time=00:10:30.53 bitrate=  66.5kbits/s dup=3153 drop=0 speed=10.1x    frame=19009 fps=303 q=12.0 size=    5120kB time=00:10:33.52 bitrate=  66.2kbits/s dup=3168 drop=0 speed=10.1x    [mp4 @ 0x555cf5e944c0] Starting second pass: moving the moov atom to the beginning of the file
frame=19080 fps=303 q=-1.0 Lsize=    5577kB time=00:10:35.96 bitrate=  71.8kbits/s dup=3180 drop=0 speed=10.1x    
video:460kB audio:4766kB subtitle:0kB other streams:0kB global headers:0kB muxing overhead: 6.722068%
[libx264 @ 0x555cf5e99000] frame I:77    Avg QP: 9.14  size:  3341
[libx264 @ 0x555cf5e99000] frame P:19003 Avg QP:12.01  size:    11
[libx264 @ 0x555cf5e99000] mb I  I16..4: 100.0%  0.0%  0.0%
[libx264 @ 0x555cf5e99000] mb P  I16..4:  0.0%  0.0%  0.0%  P16..4:  0.0%  0.0%  0.0%  0.0%  0.0%    skip:100.0%
[libx264 @ 0x555cf5e99000] coded y,u,v intra: 5.3% 0.0% 0.0% inter: 0.0% 0.0% 0.0%
[libx264 @ 0x555cf5e99000] i16 v,h,dc,p: 91%  6%  3%  0%
[libx264 @ 0x555cf5e99000] kb/s:5.91
[aac @ 0x555cf5e8ae40] Qavg: 35375.953
ffmpeg version 4.4 Copyright (c) 2000-2021 the FFmpeg developers
  built with gcc 12 (Debian 12.2.0-14)
  configuration: --enable-nonfree --enable-gpl --enable-libx264 --enable-libfontconfig --enable-libfreetype --enable-libvpx --enable-libopus
  libavutil      56. 70.100 / 56. 70.100
  libavcodec     58.134.100 / 58.134.100
  libavformat    58. 76.100 / 58. 76.100
  libavdevice    58. 13.100 / 58. 13.100
  libavfilter     7.110.100 /  7.110.100
  libswscale      5.  9.100 /  5.  9.100
  libswresample   3.  9.100 /  3.  9.100
  libpostproc    55.  9.100 / 55.  9.100
Input #0, png_pipe, from 'data/black-bg.png':
  Duration: N/A, bitrate: N/A
  Stream #0:0: Video: png, rgb24(pc), 1280x720 [SAR 3779:3779 DAR 16:9], 25 fps, 25 tbr, 25 tbn, 25 tbc
Input #1, png_pipe, from 'data/black-bg.png':
  Duration: N/A, bitrate: N/A
  Stream #1:0: Video: png, rgb24(pc), 1280x720 [SAR 3779:3779 DAR 16:9], 25 fps, 25 tbr, 25 tbn, 25 tbc
Stream mapping:
  Stream #0:0 (png) -> scale
  Stream #0:0 (png) -> scale
  overlay -> Stream #0:0 (libx264)
Press [q] to stop, [?] for help
[libx264 @ 0x5647a8ab7a00] using SAR=1/1
[libx264 @ 0x5647a8ab7a00] using cpu capabilities: MMX2 SSE2Fast SSSE3 SSE4.2 AVX FMA3 BMI2 AVX2 AVX512
[libx264 @ 0x5647a8ab7a00] profile High, level 3.1, 4:2:0, 8-bit
[libx264 @ 0x5647a8ab7a00] 264 - core 164 r3095 baee400 - H.264/MPEG-4 AVC codec - Copyleft 2003-2022 - http://www.videolan.org/x264.html - options: cabac=1 ref=3 deblock=1:0:0 analyse=0x3:0x113 me=hex subme=7 psy=1 psy_rd=1.00:0.00 mixed_ref=1 me_range=16 chroma_me=1 trellis=1 8x8dct=1 cqm=0 deadzone=21,11 fast_pskip=1 chroma_qp_offset=-2 threads=22 lookahead_threads=3 sliced_threads=0 nr=0 decimate=1 interlaced=0 bluray_compat=0 constrained_intra=0 bframes=3 b_pyramid=2 b_adapt=1 b_bias=0 direct=1 weightb=1 open_gop=0 weightp=2 keyint=250 keyint_min=25 scenecut=40 intra_refresh=0 rc_lookahead=40 rc=crf mbtree=1 crf=23.0 qcomp=0.60 qpmin=0 qpmax=69 qpstep=4 ip_ratio=1.40 aq=1:1.00
Output #0, mp4, to 'data/65b1ed7f2807aeeaa7f46233/1706160254540/record_out/init_file.mp4':
  Metadata:
    encoder         : Lavf58.76.100
  Stream #0:0: Video: h264 (avc1 / 0x31637661), yuv420p(tv, progressive), 1280x720 [SAR 1:1 DAR 16:9], q=2-31, 25 fps, 12800 tbn (default)
    Metadata:
      encoder         : Lavc58.134.100 libx264
    Side data:
      cpb: bitrate max/min/avg: 0/0/0 buffer size: 0 vbv_delay: N/A
frame=    1 fps=0.0 q=0.0 size=       0kB time=00:00:00.00 bitrate=N/A speed=   0x    frame=   25 fps=0.0 q=-1.0 Lsize=       3kB time=00:00:00.88 bitrate=  27.5kbits/s speed=2.35x    
video:2kB audio:0kB subtitle:0kB other streams:0kB global headers:0kB muxing overhead: 63.621620%
[libx264 @ 0x5647a8ab7a00] frame I:1     Avg QP: 9.00  size:   215
[libx264 @ 0x5647a8ab7a00] frame P:6     Avg QP:10.17  size:    45
[libx264 @ 0x5647a8ab7a00] frame B:18    Avg QP:12.67  size:    38
[libx264 @ 0x5647a8ab7a00] consecutive B-frames:  4.0%  0.0%  0.0% 96.0%
[libx264 @ 0x5647a8ab7a00] mb I  I16..4: 100.0%  0.0%  0.0%
[libx264 @ 0x5647a8ab7a00] mb P  I16..4:  0.0%  0.0%  0.0%  P16..4:  0.0%  0.0%  0.0%  0.0%  0.0%    skip:100.0%
[libx264 @ 0x5647a8ab7a00] mb B  I16..4:  0.0%  0.0%  0.0%  B16..8:  0.0%  0.0%  0.0%  direct: 0.0%  skip:100.0%
[libx264 @ 0x5647a8ab7a00] 8x8 transform intra:0.0%
[libx264 @ 0x5647a8ab7a00] coded y,uvDC,uvAC intra: 0.0% 0.0% 0.0% inter: 0.0% 0.0% 0.0%
[libx264 @ 0x5647a8ab7a00] i16 v,h,dc,p: 98%  0%  2%  0%
[libx264 @ 0x5647a8ab7a00] i8c dc,h,v,p: 100%  0%  0%  0%
[libx264 @ 0x5647a8ab7a00] Weighted P-Frames: Y:0.0% UV:0.0%
[libx264 @ 0x5647a8ab7a00] kb/s:9.28
Input #0, mov,mp4,m4a,3gp,3g2,mj2, from 'data/65b1ed7f2807aeeaa7f46233/1706160254540/record_out/init_file.mp4':
  Metadata:
    major_brand     : isom
    minor_version   : 512
    compatible_brands: isomiso2avc1mp41
    encoder         : Lavf58.76.100
  Duration: 00:00:01.00, start: 0.000000, bitrate: 24 kb/s
  Stream #0:0(und): Video: h264 (High) (avc1 / 0x31637661), yuv420p, 1280x720 [SAR 1:1 DAR 16:9], 14 kb/s, 25 fps, 25 tbr, 12800 tbn, 50 tbc (default)
    Metadata:
      handler_name    : VideoHandler
      vendor_id       : [0][0][0][0]
Input #1, mov,mp4,m4a,3gp,3g2,mj2, from 'data/65b1ed7f2807aeeaa7f46233/1706160254540/record_out/e52e8f72-6de9-45e1-9db8-c8a1fc4f4a73.mp4':
  Metadata:
    major_brand     : isom
    minor_version   : 512
    compatible_brands: isomiso2avc1mp41
    encoder         : Lavf58.76.100
  Duration: 00:07:48.00, start: 0.000000, bitrate: 91 kb/s
  Stream #1:0(und): Video: h264 (High 4:4:4 Predictive) (avc1 / 0x31637661), yuv444p, 320x180 [SAR 1:1 DAR 16:9], 5 kb/s, 30 fps, 30 tbr, 15360 tbn, 60 tbc (default)
    Metadata:
      handler_name    : VideoHandler
      vendor_id       : [0][0][0][0]
  Stream #1:1(und): Audio: aac (LC) (mp4a / 0x6134706D), 48000 Hz, stereo, fltp, 80 kb/s (default)
    Metadata:
      handler_name    : SoundHandler
      vendor_id       : [0][0][0][0]
Input #2, mov,mp4,m4a,3gp,3g2,mj2, from 'data/65b1ed7f2807aeeaa7f46233/1706160254540/record_out/55858472-bbe0-4aef-bb0f-cc3820358518.mp4':
  Metadata:
    major_brand     : isom
    minor_version   : 512
    compatible_brands: isomiso2avc1mp41
    encoder         : Lavf58.76.100
  Duration: 00:10:36.00, start: 0.000000, bitrate: 71 kb/s
  Stream #2:0(und): Video: h264 (High 4:4:4 Predictive) (avc1 / 0x31637661), yuv444p, 320x180 [SAR 1:1 DAR 16:9], 5 kb/s, 30 fps, 30 tbr, 15360 tbn, 60 tbc (default)
    Metadata:
      handler_name    : VideoHandler
      vendor_id       : [0][0][0][0]
  Stream #2:1(und): Audio: aac (LC) (mp4a / 0x6134706D), 48000 Hz, stereo, fltp, 61 kb/s (default)
    Metadata:
      handler_name    : SoundHandler
      vendor_id       : [0][0][0][0]
Stream mapping:
  Stream #0:0 (h264) -> overlay:main
  Stream #1:0 (h264) -> scale
  Stream #1:1 (aac) -> volume
  Stream #2:0 (h264) -> scale
  Stream #2:1 (aac) -> volume
  amix -> Stream #0:0 (aac)
  overlay -> Stream #0:1 (libx264)
Press [q] to stop, [?] for help
-async is forwarded to lavfi similarly to -af aresample=async=1:min_hard_comp=0.100000:first_pts=0.
    Last message repeated 1 times
[libx264 @ 0x55f85f5b6900] using SAR=1/1
[libx264 @ 0x55f85f5b6900] using cpu capabilities: MMX2 SSE2Fast SSSE3 SSE4.2 AVX FMA3 BMI2 AVX2 AVX512
[libx264 @ 0x55f85f5b6900] profile High, level 3.1, 4:2:0, 8-bit
[libx264 @ 0x55f85f5b6900] 264 - core 164 r3095 baee400 - H.264/MPEG-4 AVC codec - Copyleft 2003-2022 - http://www.videolan.org/x264.html - options: cabac=1 ref=3 deblock=1:0:0 analyse=0x3:0x113 me=hex subme=7 psy=1 psy_rd=1.00:0.00 mixed_ref=1 me_range=16 chroma_me=1 trellis=1 8x8dct=1 cqm=0 deadzone=21,11 fast_pskip=1 chroma_qp_offset=-2 threads=22 lookahead_threads=3 sliced_threads=0 nr=0 decimate=1 interlaced=0 bluray_compat=0 constrained_intra=0 bframes=3 b_pyramid=2 b_adapt=1 b_bias=0 direct=1 weightb=1 open_gop=0 weightp=2 keyint=250 keyint_min=25 scenecut=40 intra_refresh=0 rc_lookahead=40 rc=crf mbtree=1 crf=22.0 qcomp=0.60 qpmin=0 qpmax=69 qpstep=4 ip_ratio=1.40 aq=1:1.00
Output #0, mp4, to 'data/65b1ed7f2807aeeaa7f46233/1706160254540/record_out/Rec-65b1ed7f2807aeeaa7f46233-1706159488600.mp4':
  Metadata:
    major_brand     : isom
    minor_version   : 512
    compatible_brands: isomiso2avc1mp41
    encoder         : Lavf58.76.100
  Stream #0:0: Audio: aac (LC) (mp4a / 0x6134706D), 48000 Hz, stereo, fltp, 128 kb/s (default)
    Metadata:
      encoder         : Lavc58.134.100 aac
  Stream #0:1: Video: h264 (avc1 / 0x31637661), yuv420p(progressive), 1280x720 [SAR 1:1 DAR 16:9], q=2-31, 25 fps, 12800 tbn (default)
    Metadata:
      encoder         : Lavc58.134.100 libx264
    Side data:
      cpb: bitrate max/min/avg: 0/0/0 buffer size: 0 vbv_delay: N/A
frame=    1 fps=0.0 q=0.0 size=       0kB time=00:00:00.32 bitrate=   1.2kbits/s speed=6.29x    frame=   60 fps=0.0 q=0.0 size=       0kB time=00:00:02.66 bitrate=   0.1kbits/s dup=0 drop=6 speed=4.81x    frame=  127 fps=120 q=27.0 size=       0kB time=00:00:05.01 bitrate=   0.1kbits/s dup=0 drop=19 speed=4.74x    frame=  202 fps=130 q=27.0 size=       0kB time=00:00:08.04 bitrate=   0.0kbits/s dup=0 drop=34 speed=5.16x    frame=  273 fps=133 q=27.0 size=       0kB time=00:00:11.15 bitrate=   0.0kbits/s dup=0 drop=48 speed=5.42x    frame=  360 fps=141 q=27.0 size=       0kB time=00:00:14.29 bitrate=   0.0kbits/s dup=0 drop=66 speed=5.59x    frame=  429 fps=140 q=27.0 size=       0kB time=00:00:17.06 bitrate=   0.0kbits/s dup=0 drop=80 speed=5.58x    frame=  498 fps=140 q=27.0 size=     256kB time=00:00:19.84 bitrate= 105.7kbits/s dup=0 drop=93 speed=5.57x    frame=  576 fps=142 q=27.0 size=     256kB time=00:00:22.89 bitrate=  91.6kbits/s dup=0 drop=109 speed=5.63x    frame=  649 fps=142 q=27.0 size=     256kB time=00:00:25.85 bitrate=  81.1kbits/s dup=0 drop=124 speed=5.66x    frame=  722 fps=143 q=27.0 size=     256kB time=00:00:28.77 bitrate=  72.9kbits/s dup=0 drop=138 speed=5.68x    frame=  807 fps=145 q=27.0 size=     256kB time=00:00:32.19 bitrate=  65.2kbits/s dup=0 drop=155 speed=5.78x    frame=  887 fps=146 q=27.0 size=     256kB time=00:00:35.30 bitrate=  59.4kbits/s dup=0 drop=171 speed=5.82x    frame=  965 fps=147 q=27.0 size=     512kB time=00:00:38.50 bitrate= 108.9kbits/s dup=0 drop=187 speed=5.86x    frame= 1048 fps=148 q=27.0 size=     512kB time=00:00:41.81 bitrate= 100.3kbits/s dup=0 drop=203 speed=5.91x    frame= 1131 fps=149 q=27.0 size=     512kB time=00:00:45.22 bitrate=  92.7kbits/s dup=0 drop=220 speed=5.97x    frame= 1208 fps=150 q=27.0 size=     512kB time=00:00:48.17 bitrate=  87.1kbits/s dup=0 drop=235 speed=5.97x    frame= 1297 fps=151 q=27.0 size=     512kB time=00:00:51.73 bitrate=  81.1kbits/s dup=0 drop=253 speed=6.03x    frame= 1387 fps=153 q=27.0 size=     512kB time=00:00:55.76 bitrate=  75.2kbits/s dup=0 drop=271 speed=6.14x    frame= 1480 fps=154 q=27.0 size=     768kB time=00:00:59.11 bitrate= 106.4kbits/s dup=0 drop=290 speed=6.17x    frame= 1573 fps=156 q=27.0 size=     768kB time=00:01:02.80 bitrate= 100.2kbits/s dup=0 drop=308 speed=6.23x    frame= 1655 fps=156 q=27.0 size=     768kB time=00:01:06.09 bitrate=  95.2kbits/s dup=0 drop=325 speed=6.24x    frame= 1734 fps=156 q=27.0 size=     768kB time=00:01:09.69 bitrate=  90.3kbits/s dup=0 drop=341 speed=6.29x    frame= 1827 fps=158 q=27.0 size=     768kB time=00:01:12.91 bitrate=  86.3kbits/s dup=0 drop=359 speed=6.29x    frame= 1920 fps=159 q=27.0 size=    1024kB time=00:01:16.67 bitrate= 109.4kbits/s dup=0 drop=378 speed=6.34x    frame= 2011 fps=160 q=27.0 size=    1024kB time=00:01:20.34 bitrate= 104.4kbits/s dup=0 drop=396 speed=6.38x    frame= 2095 fps=160 q=27.0 size=    1024kB time=00:01:23.84 bitrate= 100.1kbits/s dup=0 drop=413 speed= 6.4x    frame= 2182 fps=161 q=27.0 size=    1024kB time=00:01:27.16 bitrate=  96.2kbits/s dup=0 drop=430 speed=6.41x    frame= 2269 fps=161 q=27.0 size=    1024kB time=00:01:30.77 bitrate=  92.4kbits/s dup=0 drop=448 speed=6.44x    frame= 2346 fps=161 q=27.0 size=    1024kB time=00:01:34.01 bitrate=  89.2kbits/s dup=0 drop=463 speed=6.44x    frame= 2455 fps=163 q=27.0 size=    1280kB time=00:01:38.04 bitrate= 106.9kbits/s dup=0 drop=485 speed= 6.5x    frame= 2566 fps=165 q=27.0 size=    1280kB time=00:01:42.54 bitrate= 102.3kbits/s dup=0 drop=507 speed=6.58x    frame= 2678 fps=166 q=27.0 size=    1280kB time=00:01:46.96 bitrate=  98.0kbits/s dup=0 drop=529 speed=6.65x    frame= 2787 fps=168 q=27.0 size=    1280kB time=00:01:51.31 bitrate=  94.2kbits/s dup=0 drop=551 speed=6.71x    frame= 2876 fps=168 q=27.0 size=    1280kB time=00:01:54.94 bitrate=  91.2kbits/s dup=0 drop=569 speed=6.72x    frame= 2978 fps=169 q=27.0 size=    1536kB time=00:01:58.93 bitrate= 105.8kbits/s dup=0 drop=589 speed=6.76x    frame= 3084 fps=170 q=27.0 size=    1536kB time=00:02:03.24 bitrate= 102.1kbits/s dup=0 drop=611 speed=6.81x    frame= 3174 fps=171 q=27.0 size=    1536kB time=00:02:07.27 bitrate=  98.9kbits/s dup=0 drop=629 speed=6.84x    frame= 3262 fps=171 q=27.0 size=    1536kB time=00:02:10.32 bitrate=  96.6kbits/s dup=0 drop=646 speed=6.82x    frame= 3356 fps=171 q=27.0 size=    1792kB time=00:02:14.14 bitrate= 109.4kbits/s dup=0 drop=665 speed=6.84x    frame= 3421 fps=170 q=27.0 size=    1792kB time=00:02:17.19 bitrate= 107.0kbits/s dup=0 drop=678 speed=6.82x    frame= 3502 fps=170 q=27.0 size=    1792kB time=00:02:19.90 bitrate= 104.9kbits/s dup=0 drop=694 speed=6.79x    frame= 3564 fps=169 q=27.0 size=    1792kB time=00:02:22.44 bitrate= 103.1kbits/s dup=0 drop=707 speed=6.75x    frame= 3636 fps=168 q=27.0 size=    1792kB time=00:02:25.28 bitrate= 101.0kbits/s dup=0 drop=721 speed=6.72x    frame= 3704 fps=168 q=27.0 size=    1792kB time=00:02:28.37 bitrate=  98.9kbits/s dup=0 drop=735 speed=6.71x    frame= 3778 fps=167 q=27.0 size=    1792kB time=00:02:31.46 bitrate=  96.9kbits/s dup=0 drop=749 speed= 6.7x    frame= 3862 fps=167 q=27.0 size=    2048kB time=00:02:34.32 bitrate= 108.7kbits/s dup=0 drop=766 speed=6.68x    frame= 3946 fps=167 q=27.0 size=    2048kB time=00:02:37.88 bitrate= 106.3kbits/s dup=0 drop=783 speed=6.69x    frame= 4032 fps=167 q=27.0 size=    2048kB time=00:02:41.17 bitrate= 104.1kbits/s dup=0 drop=800 speed=6.68x    frame= 4115 fps=167 q=27.0 size=    2048kB time=00:02:44.90 bitrate= 101.7kbits/s dup=0 drop=817 speed= 6.7x    frame= 4190 fps=167 q=27.0 size=    2048kB time=00:02:47.55 bitrate= 100.1kbits/s dup=0 drop=832 speed=6.67x    frame= 4267 fps=167 q=27.0 size=    2304kB time=00:02:50.73 bitrate= 110.6kbits/s dup=0 drop=847 speed=6.66x    frame= 4343 fps=166 q=27.0 size=    2304kB time=00:02:53.63 bitrate= 108.7kbits/s dup=0 drop=862 speed=6.65x    frame= 4414 fps=166 q=27.0 size=    2304kB time=00:02:56.89 bitrate= 106.7kbits/s dup=0 drop=877 speed=6.64x    frame= 4499 fps=166 q=27.0 size=    2304kB time=00:02:59.84 bitrate= 105.0kbits/s dup=0 drop=894 speed=6.63x    frame= 4588 fps=166 q=27.0 size=    2304kB time=00:03:03.40 bitrate= 102.9kbits/s dup=0 drop=911 speed=6.64x    frame= 4689 fps=167 q=27.0 size=    2560kB time=00:03:07.90 bitrate= 111.6kbits/s dup=0 drop=932 speed=6.68x    frame= 4793 fps=167 q=27.0 size=    2560kB time=00:03:11.76 bitrate= 109.4kbits/s dup=0 drop=952 speed= 6.7x    frame= 4895 fps=168 q=27.0 size=    2560kB time=00:03:15.64 bitrate= 107.2kbits/s dup=0 drop=973 speed=6.72x    frame= 4991 fps=168 q=27.0 size=    2560kB time=00:03:19.57 bitrate= 105.1kbits/s dup=0 drop=992 speed=6.73x    frame= 5093 fps=169 q=27.0 size=    2816kB time=00:03:23.60 bitrate= 113.3kbits/s dup=0 drop=1012 speed=6.76x    frame= 5209 fps=170 q=27.0 size=    2816kB time=00:03:28.34 bitrate= 110.7kbits/s dup=0 drop=1036 speed= 6.8x    frame= 5321 fps=171 q=27.0 size=    2816kB time=00:03:32.90 bitrate= 108.4kbits/s dup=0 drop=1058 speed=6.84x    frame= 5428 fps=172 q=27.0 size=    2816kB time=00:03:36.96 bitrate= 106.3kbits/s dup=0 drop=1079 speed=6.86x    frame= 5534 fps=172 q=27.0 size=    3072kB time=00:03:41.63 bitrate= 113.5kbits/s dup=0 drop=1101 speed= 6.9x    frame= 5638 fps=173 q=27.0 size=    3072kB time=00:03:45.47 bitrate= 111.6kbits/s dup=0 drop=1121 speed=6.91x    frame= 5738 fps=173 q=27.0 size=    3072kB time=00:03:49.82 bitrate= 109.5kbits/s dup=0 drop=1141 speed=6.93x    frame= 5861 fps=174 q=27.0 size=    3072kB time=00:03:54.32 bitrate= 107.4kbits/s dup=0 drop=1166 speed=6.97x    frame= 5972 fps=175 q=27.0 size=    3328kB time=00:03:58.74 bitrate= 114.2kbits/s dup=0 drop=1188 speed=6.99x    frame= 6083 fps=176 q=27.0 size=    3328kB time=00:04:03.32 bitrate= 112.0kbits/s dup=0 drop=1210 speed=7.02x    frame= 6191 fps=176 q=27.0 size=    3328kB time=00:04:07.95 bitrate= 110.0kbits/s dup=0 drop=1232 speed=7.06x    frame= 6317 fps=177 q=27.0 size=    3584kB time=00:04:12.62 bitrate= 116.2kbits/s dup=0 drop=1257 speed=7.09x    frame= 6433 fps=178 q=27.0 size=    3584kB time=00:04:17.17 bitrate= 114.2kbits/s dup=0 drop=1280 speed=7.12x    frame= 6539 fps=178 q=27.0 size=    3584kB time=00:04:21.78 bitrate= 112.2kbits/s dup=0 drop=1302 speed=7.14x    frame= 6658 fps=179 q=27.0 size=    3584kB time=00:04:26.17 bitrate= 110.3kbits/s dup=0 drop=1325 speed=7.17x    frame= 6777 fps=180 q=27.0 size=    3840kB time=00:04:31.04 bitrate= 116.1kbits/s dup=0 drop=1349 speed= 7.2x    frame= 6888 fps=181 q=27.0 size=    3840kB time=00:04:35.39 bitrate= 114.2kbits/s dup=0 drop=1371 speed=7.22x    frame= 6994 fps=181 q=27.0 size=    3840kB time=00:04:39.72 bitrate= 112.5kbits/s dup=0 drop=1393 speed=7.24x    frame= 7113 fps=182 q=27.0 size=    3840kB time=00:04:44.48 bitrate= 110.6kbits/s dup=0 drop=1416 speed=7.27x    frame= 7227 fps=182 q=27.0 size=    4096kB time=00:04:49.30 bitrate= 116.0kbits/s dup=0 drop=1439 speed= 7.3x    frame= 7350 fps=183 q=27.0 size=    4096kB time=00:04:53.90 bitrate= 114.2kbits/s dup=0 drop=1464 speed=7.32x    frame= 7463 fps=184 q=27.0 size=    4096kB time=00:04:58.45 bitrate= 112.4kbits/s dup=0 drop=1486 speed=7.34x    frame= 7578 fps=184 q=27.0 size=    4352kB time=00:05:03.33 bitrate= 117.5kbits/s dup=0 drop=1509 speed=7.37x    frame= 7702 fps=185 q=27.0 size=    4352kB time=00:05:08.41 bitrate= 115.6kbits/s dup=0 drop=1534 speed= 7.4x    frame= 7807 fps=185 q=27.0 size=    4352kB time=00:05:12.34 bitrate= 114.1kbits/s dup=0 drop=1555 speed=7.41x    frame= 7918 fps=186 q=27.0 size=    4352kB time=00:05:17.05 bitrate= 112.4kbits/s dup=0 drop=1577 speed=7.43x    frame= 8034 fps=186 q=27.0 size=    4608kB time=00:05:21.40 bitrate= 117.4kbits/s dup=0 drop=1601 speed=7.45x    frame= 8144 fps=187 q=27.0 size=    4608kB time=00:05:25.69 bitrate= 115.9kbits/s dup=0 drop=1623 speed=7.46x    frame= 8245 fps=187 q=27.0 size=    4608kB time=00:05:29.72 bitrate= 114.5kbits/s dup=0 drop=1643 speed=7.47x    frame= 8344 fps=187 q=27.0 size=    4608kB time=00:05:33.84 bitrate= 113.1kbits/s dup=0 drop=1663 speed=7.48x    frame= 8448 fps=187 q=27.0 size=    4864kB time=00:05:37.85 bitrate= 117.9kbits/s dup=0 drop=1683 speed=7.48x    frame= 8555 fps=187 q=27.0 size=    4864kB time=00:05:42.10 bitrate= 116.5kbits/s dup=0 drop=1705 speed=7.49x    frame= 8656 fps=188 q=27.0 size=    4864kB time=00:05:46.15 bitrate= 115.1kbits/s dup=0 drop=1725 speed= 7.5x    frame= 8763 fps=188 q=27.0 size=    4864kB time=00:05:50.42 bitrate= 113.7kbits/s dup=0 drop=1746 speed=7.51x    frame= 8874 fps=188 q=27.0 size=    5120kB time=00:05:54.79 bitrate= 118.2kbits/s dup=0 drop=1769 speed=7.52x    frame= 8979 fps=188 q=27.0 size=    5120kB time=00:05:59.08 bitrate= 116.8kbits/s dup=0 drop=1790 speed=7.53x    frame= 9084 fps=189 q=27.0 size=    5120kB time=00:06:03.24 bitrate= 115.5kbits/s dup=0 drop=1811 speed=7.54x    frame= 9196 fps=189 q=27.0 size=    5120kB time=00:06:07.76 bitrate= 114.0kbits/s dup=0 drop=1833 speed=7.56x    frame= 9302 fps=189 q=27.0 size=    5376kB time=00:06:11.92 bitrate= 118.4kbits/s dup=0 drop=1854 speed=7.56x    frame= 9405 fps=189 q=27.0 size=    5376kB time=00:06:16.10 bitrate= 117.1kbits/s dup=0 drop=1875 speed=7.57x    frame= 9504 fps=189 q=27.0 size=    5376kB time=00:06:20.11 bitrate= 115.9kbits/s dup=0 drop=1895 speed=7.58x    frame= 9595 fps=189 q=27.0 size=    5376kB time=00:06:23.65 bitrate= 114.8kbits/s dup=0 drop=1913 speed=7.57x    frame= 9683 fps=189 q=27.0 size=    5632kB time=00:06:27.22 bitrate= 119.2kbits/s dup=0 drop=1930 speed=7.57x    frame= 9759 fps=189 q=27.0 size=    5632kB time=00:06:30.25 bitrate= 118.2kbits/s dup=0 drop=1946 speed=7.55x    frame= 9852 fps=189 q=27.0 size=    5632kB time=00:06:33.96 bitrate= 117.1kbits/s dup=0 drop=1964 speed=7.55x    frame= 9941 fps=189 q=27.0 size=    5632kB time=00:06:37.67 bitrate= 116.0kbits/s dup=0 drop=1982 speed=7.55x    frame=10018 fps=188 q=27.0 size=    5632kB time=00:06:40.93 bitrate= 115.1kbits/s dup=0 drop=1997 speed=7.54x    frame=10080 fps=188 q=27.0 size=    5888kB time=00:06:43.05 bitrate= 119.7kbits/s dup=0 drop=2010 speed=7.51x    frame=10146 fps=187 q=27.0 size=    5888kB time=00:06:45.67 bitrate= 118.9kbits/s dup=0 drop=2023 speed=7.49x    frame=10217 fps=187 q=27.0 size=    5888kB time=00:06:48.53 bitrate= 118.1kbits/s dup=0 drop=2037 speed=7.47x    frame=10288 fps=186 q=27.0 size=    5888kB time=00:06:51.43 bitrate= 117.2kbits/s dup=0 drop=2051 speed=7.46x    frame=10353 fps=186 q=27.0 size=    5888kB time=00:06:54.01 bitrate= 116.5kbits/s dup=0 drop=2064 speed=7.43x    frame=10416 fps=185 q=27.0 size=    5888kB time=00:06:56.51 bitrate= 115.8kbits/s dup=0 drop=2077 speed=7.41x    frame=10470 fps=185 q=27.0 size=    6144kB time=00:06:58.64 bitrate= 120.2kbits/s dup=0 drop=2088 speed=7.38x    frame=10524 fps=184 q=27.0 size=    6144kB time=00:07:01.24 bitrate= 119.5kbits/s dup=0 drop=2099 speed=7.36x    frame=10580 fps=183 q=27.0 size=    6144kB time=00:07:03.10 bitrate= 119.0kbits/s dup=0 drop=2110 speed=7.33x    frame=10651 fps=183 q=27.0 size=    6144kB time=00:07:05.89 bitrate= 118.2kbits/s dup=0 drop=2124 speed=7.32x    frame=10724 fps=183 q=27.0 size=    6144kB time=00:07:08.82 bitrate= 117.4kbits/s dup=0 drop=2139 speed= 7.3x    frame=10783 fps=182 q=27.0 size=    6144kB time=00:07:11.23 bitrate= 116.7kbits/s dup=0 drop=2150 speed=7.28x    frame=10840 fps=182 q=27.0 size=    6144kB time=00:07:13.55 bitrate= 116.1kbits/s dup=0 drop=2162 speed=7.26x    frame=10898 fps=181 q=27.0 size=    6400kB time=00:07:15.81 bitrate= 120.3kbits/s dup=0 drop=2173 speed=7.24x    frame=10950 fps=180 q=27.0 size=    6400kB time=00:07:18.03 bitrate= 119.7kbits/s dup=0 drop=2184 speed=7.21x    frame=11004 fps=180 q=27.0 size=    6400kB time=00:07:20.06 bitrate= 119.1kbits/s dup=0 drop=2195 speed=7.19x    frame=11055 fps=179 q=27.0 size=    6400kB time=00:07:22.19 bitrate= 118.6kbits/s dup=0 drop=2205 speed=7.16x    frame=11113 fps=179 q=27.0 size=    6400kB time=00:07:24.39 bitrate= 118.0kbits/s dup=0 drop=2216 speed=7.14x    frame=11178 fps=178 q=27.0 size=    6400kB time=00:07:26.97 bitrate= 117.3kbits/s dup=0 drop=2229 speed=7.12x    frame=11245 fps=178 q=27.0 size=    6656kB time=00:07:29.68 bitrate= 121.3kbits/s dup=0 drop=2243 speed=7.11x    frame=11312 fps=177 q=27.0 size=    6656kB time=00:07:32.37 bitrate= 120.5kbits/s dup=0 drop=2256 speed= 7.1x    frame=11374 fps=177 q=27.0 size=    6656kB time=00:07:34.82 bitrate= 119.9kbits/s dup=0 drop=2269 speed=7.08x    frame=11435 fps=177 q=27.0 size=    6656kB time=00:07:37.25 bitrate= 119.2kbits/s dup=0 drop=2281 speed=7.06x    frame=11498 fps=176 q=27.0 size=    6656kB time=00:07:39.77 bitrate= 118.6kbits/s dup=0 drop=2293 speed=7.05x    frame=11564 fps=176 q=27.0 size=    6656kB time=00:07:42.44 bitrate= 117.9kbits/s dup=0 drop=2307 speed=7.03x    frame=11622 fps=175 q=27.0 size=    6912kB time=00:07:44.72 bitrate= 121.8kbits/s dup=0 drop=2318 speed=7.02x    frame=11682 fps=175 q=27.0 size=    6912kB time=00:07:47.24 bitrate= 121.2kbits/s dup=0 drop=2330 speed=   7x    frame=11783 fps=175 q=27.0 size=    6912kB time=00:07:51.70 bitrate= 120.0kbits/s dup=0 drop=2351 speed=7.01x    frame=11889 fps=175 q=27.0 size=    6912kB time=00:07:55.90 bitrate= 119.0kbits/s dup=0 drop=2372 speed=7.02x    frame=12005 fps=176 q=27.0 size=    6912kB time=00:08:00.57 bitrate= 117.8kbits/s dup=0 drop=2395 speed=7.04x    frame=12100 fps=176 q=27.0 size=    7168kB time=00:08:04.33 bitrate= 121.2kbits/s dup=0 drop=2414 speed=7.05x    frame=12210 fps=176 q=27.0 size=    7168kB time=00:08:08.76 bitrate= 120.1kbits/s dup=0 drop=2436 speed=7.06x    frame=12341 fps=177 q=27.0 size=    7168kB time=00:08:13.86 bitrate= 118.9kbits/s dup=0 drop=2463 speed=7.08x    frame=12471 fps=178 q=27.0 size=    7424kB time=00:08:19.20 bitrate= 121.8kbits/s dup=0 drop=2489 speed=7.11x    frame=12589 fps=178 q=27.0 size=    7424kB time=00:08:23.91 bitrate= 120.7kbits/s dup=0 drop=2512 speed=7.12x    frame=12717 fps=178 q=27.0 size=    7424kB time=00:08:29.05 bitrate= 119.5kbits/s dup=0 drop=2538 speed=7.14x    frame=12817 fps=179 q=27.0 size=    7680kB time=00:08:33.06 bitrate= 122.6kbits/s dup=0 drop=2558 speed=7.15x    frame=12905 fps=179 q=27.0 size=    7680kB time=00:08:36.28 bitrate= 121.9kbits/s dup=0 drop=2575 speed=7.15x    frame=13014 fps=179 q=27.0 size=    7680kB time=00:08:40.91 bitrate= 120.8kbits/s dup=0 drop=2597 speed=7.16x    frame=13141 fps=179 q=27.0 size=    7680kB time=00:08:45.82 bitrate= 119.7kbits/s dup=0 drop=2623 speed=7.18x    frame=13266 fps=180 q=27.0 size=    7936kB time=00:08:51.00 bitrate= 122.4kbits/s dup=0 drop=2648 speed= 7.2x    frame=13405 fps=181 q=27.0 size=    7936kB time=00:08:56.55 bitrate= 121.2kbits/s dup=0 drop=2675 speed=7.23x    frame=13560 fps=181 q=27.0 size=    7936kB time=00:09:02.76 bitrate= 119.8kbits/s dup=0 drop=2706 speed=7.26x    frame=13731 fps=182 q=27.0 size=    8192kB time=00:09:09.61 bitrate= 122.1kbits/s dup=0 drop=2741 speed= 7.3x    frame=13882 fps=183 q=27.0 size=    8192kB time=00:09:15.64 bitrate= 120.8kbits/s dup=0 drop=2771 speed=7.33x    frame=14054 fps=184 q=27.0 size=    8448kB time=00:09:22.53 bitrate= 123.0kbits/s dup=0 drop=2805 speed=7.38x    frame=14237 fps=185 q=27.0 size=    8448kB time=00:09:29.79 bitrate= 121.5kbits/s dup=0 drop=2842 speed=7.42x    frame=14405 fps=186 q=27.0 size=    8448kB time=00:09:36.55 bitrate= 120.0kbits/s dup=0 drop=2875 speed=7.46x    frame=14577 fps=187 q=27.0 size=    8704kB time=00:09:43.27 bitrate= 122.2kbits/s dup=0 drop=2910 speed= 7.5x    frame=14755 fps=189 q=27.0 size=    8704kB time=00:09:50.22 bitrate= 120.8kbits/s dup=0 drop=2945 speed=7.54x    frame=14926 fps=189 q=27.0 size=    8704kB time=00:09:57.37 bitrate= 119.4kbits/s dup=0 drop=2980 speed=7.58x    frame=15104 fps=191 q=27.0 size=    8960kB time=00:10:04.52 bitrate= 121.4kbits/s dup=0 drop=3015 speed=7.63x    frame=15279 fps=192 q=27.0 size=    8960kB time=00:10:11.54 bitrate= 120.0kbits/s dup=0 drop=3050 speed=7.67x    frame=15449 fps=192 q=27.0 size=    8960kB time=00:10:18.30 bitrate= 118.7kbits/s dup=0 drop=3084 speed= 7.7x    frame=15620 fps=193 q=27.0 size=    9216kB time=00:10:25.19 bitrate= 120.8kbits/s dup=0 drop=3118 speed=7.74x    frame=15790 fps=194 q=27.0 size=    9216kB time=00:10:32.02 bitrate= 119.5kbits/s dup=0 drop=3152 speed=7.78x    [mp4 @ 0x55f85f5da000] Starting second pass: moving the moov atom to the beginning of the file
frame=15906 fps=195 q=-1.0 Lsize=    9949kB time=00:10:36.12 bitrate= 128.1kbits/s dup=0 drop=3176 speed=7.79x    
video:1033kB audio:8441kB subtitle:0kB other streams:0kB global headers:0kB muxing overhead: 5.012085%
[aac @ 0x55f85f633d00] Qavg: 22415.936
[libx264 @ 0x55f85f5b6900] frame I:64    Avg QP: 5.41  size:  6598
[libx264 @ 0x55f85f5b6900] frame P:4008  Avg QP: 8.07  size:    47
[libx264 @ 0x55f85f5b6900] frame B:11834 Avg QP:11.67  size:    38
[libx264 @ 0x55f85f5b6900] consecutive B-frames:  0.8%  0.0%  0.0% 99.2%
[libx264 @ 0x55f85f5b6900] mb I  I16..4: 97.5%  0.0%  2.4%
[libx264 @ 0x55f85f5b6900] mb P  I16..4:  0.0%  0.0%  0.0%  P16..4:  0.0%  0.0%  0.0%  0.0%  0.0%    skip:100.0%
[libx264 @ 0x55f85f5b6900] mb B  I16..4:  0.0%  0.0%  0.0%  B16..8:  0.0%  0.0%  0.0%  direct: 0.0%  skip:100.0%  L0:61.0% L1:39.0% BI: 0.0%
[libx264 @ 0x55f85f5b6900] 8x8 transform intra:0.0% inter:71.9%
[libx264 @ 0x55f85f5b6900] coded y,uvDC,uvAC intra: 2.6% 0.0% 0.0% inter: 0.0% 0.0% 0.0%
[libx264 @ 0x55f85f5b6900] i16 v,h,dc,p: 97%  0%  2%  0%
[libx264 @ 0x55f85f5b6900] i8 v,h,dc,ddl,ddr,vr,hd,vl,hu: 12% 49% 25%  0%  0%  0% 12%  1%  0%
[libx264 @ 0x55f85f5b6900] i4 v,h,dc,ddl,ddr,vr,hd,vl,hu: 22% 26% 17%  3%  5%  8%  6%  6%  6%
[libx264 @ 0x55f85f5b6900] i8c dc,h,v,p: 100%  0%  0%  0%
[libx264 @ 0x55f85f5b6900] Weighted P-Frames: Y:0.0% UV:0.0%
[libx264 @ 0x55f85f5b6900] ref P L0: 88.8% 11.2%
[libx264 @ 0x55f85f5b6900] ref B L0: 48.5% 51.5%
[libx264 @ 0x55f85f5b6900] kb/s:13.29
